<svg width="20" height="20" viewBox="0 0 20 20" fill="none" xmlns="http://www.w3.org/2000/svg">
<path d="M9.99984 1.66699C5.39984 1.66699 1.6665 5.40033 1.6665 10.0003C1.6665 14.6003 5.39984 18.3337 9.99984 18.3337C14.5998 18.3337 18.3332 14.6003 18.3332 10.0003C18.3332 5.40033 14.5998 1.66699 9.99984 1.66699ZM9.99984 4.16699C11.3832 4.16699 12.4998 5.28366 12.4998 6.66699C12.4998 8.05033 11.3832 9.16699 9.99984 9.16699C8.6165 9.16699 7.49984 8.05033 7.49984 6.66699C7.49984 5.28366 8.6165 4.16699 9.99984 4.16699ZM9.99984 16.0003C7.9165 16.0003 6.07484 14.9337 4.99984 13.317C5.02484 11.6587 8.33317 10.7503 9.99984 10.7503C11.6582 10.7503 14.9748 11.6587 14.9998 13.317C13.9248 14.9337 12.0832 16.0003 9.99984 16.0003Z" fill="#4169E2"/>
</svg>
