<svg width="70" height="70" viewBox="0 0 70 70" fill="none" xmlns="http://www.w3.org/2000/svg">
<path d="M60.1559 38.3901L68.359 46.4839L31.9371 63.8745C31.9371 63.8745 27.1246 66.062 24.8277 62.562C15.859 48.562 60.1559 38.3901 60.1559 38.3901Z" fill="#18191B"/>
<path d="M31.0629 53.7036C31.0629 53.7036 24.0629 56.1099 25.3754 60.813C26.6879 65.6255 32.266 62.6724 32.266 62.6724L66.8285 46.5942C66.8285 46.5942 64.8597 41.4536 68.3597 38.063L31.0629 53.7036Z" fill="#D9E3E8"/>
<path d="M36.8589 5.46875L69.9995 37.7344L30.8433 53.0469L5.68701 13.8906L36.8589 5.46875Z" fill="#4C5870"/>
<path d="M37.8433 12.7964L44.187 19.5776L20.4526 28.1089L14.8745 19.4683L37.8433 12.7964Z" fill="white"/>
<path d="M66.7173 41.562L43.6392 50.9683L66.3892 40.5776L66.7173 41.562Z" fill="#94989B"/>
<path d="M66.3896 44.4058L41.7803 54.5776L65.9521 43.312L66.3896 44.4058Z" fill="#94989B"/>
<path d="M66.6084 45.937L35.2178 59.6089L66.1709 44.9526L66.6084 45.937Z" fill="#94989B"/>
<path d="M24.8281 62.5622C21 54.5778 30.8438 53.1559 30.8438 53.1559L5.6875 13.8903C5.6875 13.8903 0 13.7809 0 19.6872C0 22.0934 1.09375 23.9528 1.09375 23.9528L24.8281 62.5622Z" fill="#404654"/>
</svg>
