<svg width="70" height="70" viewBox="0 0 70 70" fill="none" xmlns="http://www.w3.org/2000/svg">
<g clip-path="url(#clip0)">
<path fill-rule="evenodd" clip-rule="evenodd" d="M27.4688 45.3304C26.6779 44.5398 25.6054 44.0957 24.4872 44.0957C23.3689 44.0957 22.2964 44.5398 21.5055 45.3304L6.13492 60.7017C5.36956 61.4977 4.9469 62.5621 4.95772 63.6662C4.96854 64.7704 5.41199 65.8263 6.1928 66.6071C6.97361 67.3879 8.02951 67.8314 9.13369 67.8422C10.2379 67.853 11.3023 67.4304 12.0982 66.665L27.4688 51.2944C27.8605 50.9028 28.1711 50.4379 28.3831 49.9263C28.5951 49.4146 28.7042 48.8662 28.7042 48.3124C28.7042 47.7586 28.5951 47.2102 28.3831 46.6985C28.1711 46.1869 27.8605 45.722 27.4688 45.3304Z" fill="#2C3E50"/>
<path fill-rule="evenodd" clip-rule="evenodd" d="M35.0776 37.7179C34.6818 37.3223 34.1451 37.1001 33.5855 37.1001C33.0259 37.1001 32.4892 37.3223 32.0935 37.7179L24.4187 45.3935C24.0359 45.7918 23.8247 46.3244 23.8302 46.8768C23.8357 47.4292 24.0576 47.9574 24.4482 48.348C24.8389 48.7386 25.3671 48.9605 25.9195 48.966C26.4719 48.9716 27.0044 48.7603 27.4028 48.3776L35.0776 40.7021C35.2736 40.5062 35.4291 40.2736 35.5353 40.0176C35.6414 39.7616 35.696 39.4871 35.696 39.21C35.696 38.9329 35.6414 38.6584 35.5353 38.4024C35.4291 38.1464 35.2736 37.9138 35.0776 37.7179Z" fill="#BDC2C7"/>
<path d="M70.0001 25.1264C70.0001 26.7778 69.3441 28.3615 68.1764 29.5292C67.0087 30.6969 65.425 31.3529 63.7736 31.3529H6.22661C4.5914 31.3284 3.03148 30.6616 1.88379 29.4966C0.736101 28.3315 0.0927734 26.7618 0.0927734 25.1264C0.0927734 23.491 0.736101 21.9213 1.88379 20.7562C3.03148 19.5912 4.5914 18.9244 6.22661 18.8999H63.7729C65.4243 18.8999 67.0081 19.5559 68.176 20.7236C69.3438 21.8912 69.9999 23.475 70.0001 25.1264Z" fill="#BDC2C7"/>
<path d="M6.3 27.9999C7.8464 27.9999 9.1 26.7463 9.1 25.1999C9.1 23.6535 7.8464 22.3999 6.3 22.3999C4.7536 22.3999 3.5 23.6535 3.5 25.1999C3.5 26.7463 4.7536 27.9999 6.3 27.9999Z" fill="#D4D7DA"/>
<path d="M47.6001 45.5C36.0207 45.5 26.6001 36.0794 26.6001 24.5C26.6001 12.9206 36.0207 3.5 47.6001 3.5C59.1795 3.5 68.6001 12.9206 68.6001 24.5C68.6001 36.0794 59.1795 45.5 47.6001 45.5Z" fill="#ECF0F1"/>
<path d="M47.6002 4.9001C58.4075 4.9001 67.2002 13.6928 67.2002 24.5001C67.2002 35.3074 58.4075 44.1001 47.6002 44.1001C36.7929 44.1001 28.0002 35.3074 28.0002 24.5001C28.0002 13.6928 36.7929 4.9001 47.6002 4.9001ZM47.6002 2.1001C35.2291 2.1001 25.2002 12.129 25.2002 24.5001C25.2002 36.8712 35.2291 46.9001 47.6002 46.9001C59.9713 46.9001 70.0002 36.8712 70.0002 24.5001C70.0002 12.129 59.9713 2.1001 47.6002 2.1001Z" fill="#2C3E50"/>
<path d="M47.6001 9.1001C56.1051 9.1001 63.0001 15.9951 63.0001 24.5001" stroke="white" stroke-width="0.876528" stroke-miterlimit="10" stroke-linecap="round" stroke-linejoin="round"/>
</g>
<defs>
<clipPath id="clip0">
<rect width="70" height="70" fill="white"/>
</clipPath>
</defs>
</svg>
