<?xml version="1.0" standalone="no"?>
<!DOCTYPE svg PUBLIC "-//W3C//DTD SVG 20010904//EN"
 "http://www.w3.org/TR/2001/REC-SVG-20010904/DTD/svg10.dtd">
<svg version="1.0" xmlns="http://www.w3.org/2000/svg"
 width="127.000000pt" height="85.000000pt" viewBox="0 0 127.000000 85.000000"
 preserveAspectRatio="xMidYMid meet">

<g transform="translate(0.000000,85.000000) scale(0.100000,-0.100000)"
fill="#000000" stroke="none">
<path d="M670 740 c0 -5 5 -10 10 -10 6 0 10 5 10 10 0 6 -4 10 -10 10 -5 0
-10 -4 -10 -10z"/>
<path d="M750 724 c0 -4 20 -25 44 -48 30 -28 48 -55 56 -85 13 -51 8 -61 -20
-36 -37 33 -35 5 3 -32 l37 -37 30 29 c29 28 39 55 21 55 -6 0 -13 -4 -16 -10
-11 -17 -25 -11 -25 12 0 36 -40 107 -74 133 -32 24 -56 32 -56 19z"/>
<path d="M212 686 c-81 -22 -114 -36 -118 -49 -6 -18 25 -77 119 -227 41 -67
58 -85 77 -87 l25 -2 -24 7 c-58 18 -30 46 94 97 50 21 110 46 134 57 l44 20
-109 109 c-60 60 -113 108 -119 108 -5 -1 -61 -16 -123 -33z m165 -38 l24 -22
-73 -27 c-93 -35 -100 -35 -121 0 l-17 30 57 16 c32 9 63 18 68 20 23 8 40 4
62 -17z"/>
<path d="M932 337 c-79 -35 -94 -45 -99 -68 l-5 -27 -62 25 c-76 33 -93 47
-46 40 19 -3 47 -9 63 -12 45 -12 31 12 -18 31 -39 14 -52 15 -88 5 -23 -7
-53 -16 -67 -19 -36 -10 -41 -73 -8 -94 46 -29 341 -148 367 -148 32 0 191 75
191 90 0 18 -29 11 -100 -25 -38 -19 -81 -35 -95 -35 -28 0 -332 125 -354 145
-17 17 -7 45 16 45 10 0 67 -20 125 -45 59 -25 118 -45 132 -45 28 0 136 49
136 62 0 14 -26 9 -85 -18 -50 -23 -59 -24 -71 -12 -25 25 -5 45 84 84 102 44
152 48 206 15 l36 -23 0 -99 0 -99 36 0 c39 0 44 23 6 28 -21 3 -22 9 -22 97
l0 94 -43 26 c-65 37 -120 33 -235 -18z"/>
<path d="M360 355 c-14 -8 -20 -14 -15 -14 6 0 21 6 35 14 14 8 21 14 15 14
-5 0 -21 -6 -35 -14z"/>
</g>
</svg>
