<svg
  width="70"
  height="70"
  xmlns="http://www.w3.org/2000/svg"
  xmlns:xlink="http://www.w3.org/1999/xlink"
  viewBox="0 0 128 128"
  fill="#5B5B5B"
>
  <path
    d="M108.09961 1C106.49961 1 105.09961 2.4 105.09961 4C105.09961 5.7 106.49961 7 108.09961 7C109.79961 7 111.09961 5.6 111.09961 4C111.09961 2.4 109.69961 1 108.09961 1 z M 92.458984 4.6132812C92.068359 4.6320312 91.675781 4.7253906 91.300781 4.9003906C78.100781 11.400391 70.199609 24.600781 70.099609 38.800781L66.099609 34.800781C64.899609 33.600781 63.000391 33.600781 61.900391 34.800781C60.700391 36.000781 60.700391 37.9 61.900391 39L71.900391 49C72.500391 49.6 73.2 49.900391 74 49.900391C74.5 49.900391 75 49.8 75.5 49.5C75.7 49.4 75.999609 49.2 76.099609 49L86.099609 39C87.299609 37.8 87.299609 35.900781 86.099609 34.800781C84.899609 33.600781 83.000391 33.600781 81.900391 34.800781L76.099609 40.599609C75.499609 27.999609 82.300391 16.100781 93.900391 10.300781C95.400391 9.6007813 96.000781 7.8007812 95.300781 6.3007812C94.775781 5.1757812 93.630859 4.5570313 92.458984 4.6132812 z M 36.728516 68.355469C29.449219 68.240234 22.199219 70.537109 16.199219 75.099609L12.300781 78.099609L12 78.400391L11 79.400391C10.4 80.000391 10.099609 80.7 10.099609 81.5L10.099609 113.5L4 113.5C2.3 113.5 1 114.8 1 116.5C1 118.2 2.3 119.5 4 119.5L13 119.5C14.7 119.5 16 118.2 16 116.5L16 82.699219L19.800781 79.800781C27.700781 73.800781 38.099219 72.599609 47.199219 76.599609L73 88.199219C74.2 88.699219 75.199609 89.7 75.599609 91C76.099609 92.2 76 93.600781 75.5 94.800781C75 96.000781 74.000781 96.900391 72.800781 97.400391C71.600781 97.900391 70.2 97.800781 69 97.300781L49 88.400391C47.5 87.700391 45.7 88.400391 45 89.900391C44.3 91.400391 45 93.200391 46.5 93.900391L66.5 102.80078C69.2 104.00078 72.200391 104.1 74.900391 103C75.300391 102.9 75.7 102.7 76 102.5C76.2 102.5 76.300391 102.40039 76.400391 102.40039L114.59961 86.199219C115.79961 85.699219 117.20039 85.699219 118.40039 86.199219C119.60039 86.699219 120.59961 87.700391 121.09961 88.900391C121.59961 90.100391 121.59961 91.499219 121.09961 92.699219C120.59961 93.899219 119.60039 94.900391 118.40039 95.400391L62 119.19922C57.5 121.09922 52.300391 121.00078 47.900391 118.80078L24.099609 107.19922C22.599609 106.49922 20.799609 107.09961 20.099609 108.59961C19.399609 110.09961 20 111.89961 21.5 112.59961L45.300781 124.19922C48.500781 125.79922 51.900391 126.5 55.400391 126.5C58.400391 126.5 61.500391 125.89922 64.400391 124.69922L120.80078 100.90039C123.50078 99.800391 125.59922 97.600391 126.69922 94.900391C127.79922 92.200391 127.79961 89.2 126.59961 86.5C125.49961 83.8 123.29961 81.699609 120.59961 80.599609C117.99961 79.499609 115.00078 79.499609 112.30078 80.599609L111.09961 81.099609C109.89961 78.999609 108.00078 77.4 105.80078 76.5C103.10078 75.4 100.10039 75.399609 97.400391 76.599609L85.800781 81.5C84.300781 82.1 83.599219 83.900391 84.199219 85.400391C84.699219 86.500391 85.8 87.199219 87 87.199219C87.4 87.199219 87.799219 87.1 88.199219 87L99.800781 82.099609C101.00078 81.599609 102.39961 81.599609 103.59961 82.099609C104.39961 82.399609 105 82.9 105.5 83.5L82 93.5C82.3 89 79.9 84.599219 75.5 82.699219L49.599609 71.199219C45.474609 69.361719 41.096094 68.424609 36.728516 68.355469 z"
    fill="#5B5B5B"
  />
</svg>
