<svg width="70" height="70" viewBox="0 0 70 70" fill="none" xmlns="http://www.w3.org/2000/svg">
<g clip-path="url(#clip0)">
<path d="M35.0002 13.0941C38.4598 13.0941 41.2645 10.2894 41.2645 6.82975C41.2645 3.37006 38.4598 0.56543 35.0002 0.56543C31.5405 0.56543 28.7358 3.37006 28.7358 6.82975C28.7358 10.2894 31.5405 13.0941 35.0002 13.0941Z" fill="#4C5870"/>
<path d="M35.0001 16.6738C29.0692 16.6738 24.2612 21.4818 24.2612 27.4127H45.7391C45.7391 21.4818 40.9311 16.6738 35.0001 16.6738Z" fill="#4C5870"/>
<path d="M10.7389 55.1155C14.1986 55.1155 17.0032 52.3109 17.0032 48.8512C17.0032 45.3915 14.1986 42.5869 10.7389 42.5869C7.27924 42.5869 4.47461 45.3915 4.47461 48.8512C4.47461 52.3109 7.27924 55.1155 10.7389 55.1155Z" fill="#4C5870"/>
<path d="M10.7384 58.6953C4.8075 58.6953 -0.000488281 63.5033 -0.000488281 69.4343H21.4773C21.4773 63.5033 16.6694 58.6953 10.7384 58.6953Z" fill="#4C5870"/>
<path d="M59.2604 55.1155C62.7201 55.1155 65.5247 52.3109 65.5247 48.8512C65.5247 45.3915 62.7201 42.5869 59.2604 42.5869C55.8007 42.5869 52.9961 45.3915 52.9961 48.8512C52.9961 52.3109 55.8007 55.1155 59.2604 55.1155Z" fill="#4C5870"/>
<path d="M59.2608 58.6953C53.33 58.6953 48.522 63.5033 48.522 69.4342H69.9997C69.9997 63.5033 65.1917 58.6953 59.2608 58.6953Z" fill="#4C5870"/>
<path d="M46.1251 51.7062L36.7899 46.3164V35.5369C36.7899 34.5484 35.9885 33.7471 35.0001 33.7471C34.0118 33.7471 33.2103 34.5484 33.2103 35.5369V46.3164L23.8752 51.7062C23.0191 52.2003 22.7258 53.295 23.2202 54.1511C23.7145 55.0072 24.8094 55.3005 25.6651 54.8061L35.0003 49.4164L44.3354 54.8061C44.6173 54.9688 44.9249 55.0462 45.2286 55.0462C45.8471 55.0462 46.4489 54.7253 46.7804 54.1511C47.2743 53.2951 46.9811 52.2003 46.1251 51.7062Z" fill="#4C5870"/>
</g>
<defs>
<clipPath id="clip0">
<rect width="70" height="70" fill="white"/>
</clipPath>
</defs>
</svg>
