<svg width="20" height="21" viewBox="0 0 20 21" fill="none" xmlns="http://www.w3.org/2000/svg">
<path d="M10.8335 3C6.69183 3 3.3335 6.35833 3.3335 10.5H0.833496L4.07516 13.7417L4.1335 13.8583L7.50016 10.5H5.00016C5.00016 7.275 7.6085 4.66667 10.8335 4.66667C14.0585 4.66667 16.6668 7.275 16.6668 10.5C16.6668 13.725 14.0585 16.3333 10.8335 16.3333C9.22516 16.3333 7.76683 15.675 6.71683 14.6167L5.5335 15.8C6.89183 17.1583 8.7585 18 10.8335 18C14.9752 18 18.3335 14.6417 18.3335 10.5C18.3335 6.35833 14.9752 3 10.8335 3ZM10.0002 7.16667V11.3333L13.5418 13.4333L14.1835 12.3667L11.2502 10.625V7.16667H10.0002Z" fill="#485964"/>
</svg>
