<?xml version="1.0" standalone="no"?>
<!DOCTYPE svg PUBLIC "-//W3C//DTD SVG 20010904//EN"
 "http://www.w3.org/TR/2001/REC-SVG-20010904/DTD/svg10.dtd">
<svg version="1.0" xmlns="http://www.w3.org/2000/svg"
 width="80.000000pt" height="80.000000pt" viewBox="0 0 123.000000 82.000000"
 preserveAspectRatio="xMidYMid meet">

<g transform="translate(0.000000,82.000000) scale(0.100000,-0.100000)"
fill="#5B5B5B" stroke="none">
<path d="M640 710 c0 -5 5 -10 10 -10 6 0 10 5 10 10 0 6 -4 10 -10 10 -5 0
-10 -4 -10 -10z"/>
<path d="M521 673 c-35 -28 -70 -92 -71 -130 0 -24 -14 -31 -25 -13 -3 6 -10
10 -16 10 -18 0 -8 -27 21 -55 l30 -29 37 37 c41 41 38 64 -3 26 l-27 -24 8
40 c10 55 29 90 70 122 19 15 35 31 35 36 0 15 -26 6 -59 -20z"/>
<path d="M882 656 c-81 -22 -114 -36 -118 -49 -6 -18 25 -77 119 -227 41 -67
58 -85 77 -87 l25 -2 -24 7 c-58 18 -30 46 94 97 50 21 110 46 134 57 l44 20
-109 109 c-60 60 -113 108 -119 108 -5 -1 -61 -16 -123 -33z m165 -38 l24 -22
-73 -27 c-93 -35 -100 -35 -121 0 l-17 30 57 16 c32 9 63 18 68 20 23 8 40 4
62 -17z"/>
<path d="M163 324 l-43 -25 0 -94 c0 -88 -1 -94 -22 -97 -38 -5 -33 -28 6 -28
l36 0 0 99 0 99 36 23 c54 33 104 29 206 -15 89 -39 109 -59 84 -84 -12 -12
-21 -11 -71 12 -59 27 -85 32 -85 18 0 -13 108 -62 136 -62 14 0 73 20 132 45
58 25 115 45 125 45 23 0 33 -28 16 -45 -22 -20 -326 -145 -354 -145 -14 0
-57 16 -95 35 -38 19 -76 35 -85 35 -35 0 -10 -23 68 -61 62 -31 90 -39 117
-36 19 3 109 36 199 73 172 73 190 86 177 138 -4 18 -15 28 -34 31 -15 3 -44
11 -64 17 -30 9 -46 8 -83 -6 -49 -19 -62 -42 -17 -32 90 20 97 16 27 -18
l-70 -33 -7 27 c-6 22 -24 34 -104 68 -116 51 -168 54 -231 16z"/>
<path d="M1030 325 c-14 -8 -20 -14 -15 -14 6 0 21 6 35 14 14 8 21 14 15 14
-5 0 -21 -6 -35 -14z"
fill="#5B5B5B"
/>
</g>
</svg>
