<svg width="72" height="12" viewBox="0 0 72 12" fill="none" xmlns="http://www.w3.org/2000/svg">
<path d="M11.9816 4.5679C11.9335 4.39506 11.7654 4.27161 11.5972 4.22222L8.01789 3.67901L6.40838 0.271605C6.33631 0.0987654 6.14413 0 5.97598 0C5.7838 0 5.61564 0.0987654 5.54357 0.271605L3.95809 3.65432L0.40277 4.22222C0.234613 4.24691 0.0664559 4.37037 0.018411 4.5679C-0.0296339 4.74074 0.018411 4.93827 0.138523 5.06173L2.70893 7.67901L2.08434 11.3827C2.06032 11.5802 2.13239 11.7531 2.27652 11.8765C2.42066 11.9753 2.61284 12 2.78099 11.9012L5.95195 10.1728L9.14694 11.9506C9.21901 12 9.29108 12 9.38717 12C9.48326 12 9.57934 11.9753 9.67543 11.9012C9.81957 11.8025 9.89164 11.6049 9.86761 11.4074L9.24303 7.7037L11.8615 5.06173C11.9816 4.93827 12.0296 4.74074 11.9816 4.5679Z" fill="#FFBA00"/>
<path d="M26.9816 4.5679C26.9335 4.39506 26.7654 4.27161 26.5972 4.22222L23.0179 3.67901L21.4084 0.271605C21.3363 0.0987654 21.1441 0 20.976 0C20.7838 0 20.6156 0.0987654 20.5436 0.271605L18.9581 3.65432L15.4028 4.22222C15.2346 4.24691 15.0665 4.37037 15.0184 4.5679C14.9704 4.74074 15.0184 4.93827 15.1385 5.06173L17.7089 7.67901L17.0843 11.3827C17.0603 11.5802 17.1324 11.7531 17.2765 11.8765C17.4207 11.9753 17.6128 12 17.781 11.9012L20.952 10.1728L24.1469 11.9506C24.219 12 24.2911 12 24.3872 12C24.4833 12 24.5793 11.9753 24.6754 11.9012C24.8196 11.8025 24.8916 11.6049 24.8676 11.4074L24.243 7.7037L26.8615 5.06173C26.9816 4.93827 27.0296 4.74074 26.9816 4.5679Z" fill="#FFBA00"/>
<path d="M41.9816 4.5679C41.9335 4.39506 41.7654 4.27161 41.5972 4.22222L38.0179 3.67901L36.4084 0.271605C36.3363 0.0987654 36.1441 0 35.976 0C35.7838 0 35.6156 0.0987654 35.5436 0.271605L33.9581 3.65432L30.4028 4.22222C30.2346 4.24691 30.0665 4.37037 30.0184 4.5679C29.9704 4.74074 30.0184 4.93827 30.1385 5.06173L32.7089 7.67901L32.0843 11.3827C32.0603 11.5802 32.1324 11.7531 32.2765 11.8765C32.4207 11.9753 32.6128 12 32.781 11.9012L35.952 10.1728L39.1469 11.9506C39.219 12 39.2911 12 39.3872 12C39.4833 12 39.5793 11.9753 39.6754 11.9012C39.8196 11.8025 39.8916 11.6049 39.8676 11.4074L39.243 7.7037L41.8615 5.06173C41.9816 4.93827 42.0296 4.74074 41.9816 4.5679Z" fill="#FFBA00"/>
<path d="M56.9816 4.5679C56.9335 4.39506 56.7654 4.27161 56.5972 4.22222L53.0179 3.67901L51.4084 0.271605C51.3363 0.0987654 51.1441 0 50.976 0C50.7838 0 50.6156 0.0987654 50.5436 0.271605L48.9581 3.65432L45.4028 4.22222C45.2346 4.24691 45.0665 4.37037 45.0184 4.5679C44.9704 4.74074 45.0184 4.93827 45.1385 5.06173L47.7089 7.67901L47.0843 11.3827C47.0603 11.5802 47.1324 11.7531 47.2765 11.8765C47.4207 11.9753 47.6128 12 47.781 11.9012L50.952 10.1728L54.1469 11.9506C54.219 12 54.2911 12 54.3872 12C54.4833 12 54.5793 11.9753 54.6754 11.9012C54.8196 11.8025 54.8916 11.6049 54.8676 11.4074L54.243 7.7037L56.8615 5.06173C56.9816 4.93827 57.0296 4.74074 56.9816 4.5679Z" fill="#FFBA00"/>
<path d="M71.9816 4.5679C71.9335 4.39506 71.7654 4.27161 71.5972 4.22222L68.0179 3.67901L66.4084 0.271605C66.3363 0.0987654 66.1441 0 65.976 0C65.7838 0 65.6156 0.0987654 65.5436 0.271605L63.9581 3.65432L60.4028 4.22222C60.2346 4.24691 60.0665 4.37037 60.0184 4.5679C59.9704 4.74074 60.0184 4.93827 60.1385 5.06173L62.7089 7.67901L62.0843 11.3827C62.0603 11.5802 62.1324 11.7531 62.2765 11.8765C62.4207 11.9753 62.6128 12 62.781 11.9012L65.952 10.1728L69.1469 11.9506C69.219 12 69.2911 12 69.3872 12C69.4833 12 69.5793 11.9753 69.6754 11.9012C69.8196 11.8025 69.8916 11.6049 69.8676 11.4074L69.243 7.7037L71.8615 5.06173C71.9816 4.93827 72.0296 4.74074 71.9816 4.5679Z" fill="#CED0D2"/>
</svg>
