<svg width="155" height="155" viewBox="0 0 155 155" fill="none" xmlns="http://www.w3.org/2000/svg">
<g clip-path="url(#clip0)">
<path d="M154.983 56.0863V140.121C154.983 144.431 153.149 148.313 150.22 151.03C147.563 153.493 144.008 154.999 140.102 154.999H14.879C10.973 154.999 7.41821 153.493 4.76456 151.033C1.83537 148.313 0.0012207 144.431 0.0012207 140.121V56.0863H154.983Z" fill="#FEC970"/>
<path d="M154.982 56.0856L95.411 6.48327C85.0282 -2.16239 69.9541 -2.16239 59.5713 6.48327L0 56.0856H0.00118256L17.5586 70.7044L59.5713 105.686C69.9553 114.334 85.0293 114.334 95.4098 105.686L137.426 70.7044L154.983 56.0856" fill="#FBA028"/>
<path d="M137.426 25.1305V70.705L95.4098 105.686C85.0293 114.334 69.9553 114.334 59.5713 105.686L17.5586 70.705V25.1305C17.5586 15.6287 25.2629 7.92432 34.7672 7.92432H120.22C129.724 7.92432 137.426 15.6287 137.426 25.1305Z" fill="#BFDADD"/>
<path d="M137.426 25.1305V60.2666L95.4098 95.249C85.0293 103.896 69.9553 103.896 59.5713 95.249L17.5586 60.2666V25.1305C17.5586 15.6287 25.2629 7.92432 34.7672 7.92432H120.22C129.724 7.92432 137.426 15.6287 137.426 25.1305Z" fill="#E4F5F7"/>
<path d="M112.284 68.0857H42.7008C41.3905 68.0857 40.3286 67.0238 40.3286 65.7135C40.3286 64.4044 41.3905 63.3413 42.7008 63.3413H112.284C113.594 63.3413 114.656 64.4044 114.656 65.7135C114.656 67.0238 113.594 68.0857 112.284 68.0857Z" fill="#4B5051"/>
<path d="M112.284 81.8636H42.7008C41.3905 81.8636 40.3286 80.8017 40.3286 79.4914C40.3286 78.1812 41.3905 77.1192 42.7008 77.1192H112.284C113.594 77.1192 114.656 78.1812 114.656 79.4914C114.656 80.8017 113.594 81.8636 112.284 81.8636Z" fill="#4B5051"/>
<path d="M112.284 40.5321H42.7008C41.3905 40.5321 40.3286 39.4702 40.3286 38.1599C40.3286 36.8496 41.3905 35.7877 42.7008 35.7877H112.284C113.594 35.7877 114.656 36.8496 114.656 38.1599C114.656 39.4702 113.594 40.5321 112.284 40.5321Z" fill="#4B5051"/>
<path d="M112.284 54.3089H42.7008C41.3905 54.3089 40.3286 53.247 40.3286 51.9367C40.3286 50.6264 41.3905 49.5645 42.7008 49.5645H112.284C113.594 49.5645 114.656 50.6264 114.656 51.9367C114.656 53.247 113.594 54.3089 112.284 54.3089Z" fill="#4B5051"/>
<path d="M151.82 33.2109C151.82 51.466 137.022 66.2645 118.768 66.2645C100.513 66.2645 85.7141 51.466 85.7141 33.2109C85.7141 14.957 100.513 0.158447 118.768 0.158447C137.022 0.158447 151.82 14.957 151.82 33.2109Z" fill="#26BF64"/>
<path d="M151.82 33.2109C151.82 50.5093 138.536 64.7012 121.615 66.1439C104.69 64.7012 91.4092 50.5093 91.4092 33.2109C91.4092 15.916 104.69 1.72416 121.615 0.282623C138.536 1.72416 151.82 15.916 151.82 33.2109Z" fill="#49D685"/>
<path d="M118.609 53.5462C117.915 53.5462 117.248 53.2399 116.794 52.6994L103.037 36.3175C102.195 35.3135 102.325 33.8176 103.328 32.9756C104.332 32.1324 105.828 32.2637 106.67 33.2665L117.948 46.6968L130.663 17.0288C131.179 15.825 132.574 15.2668 133.778 15.7836C134.982 16.2992 135.54 17.6934 135.023 18.8984L120.79 52.1082C120.466 52.8662 119.772 53.4007 118.957 53.5201C118.841 53.5379 118.725 53.5462 118.609 53.5462Z" fill="white"/>
<path d="M140.537 145.343C140.003 145.343 139.465 145.163 139.021 144.795L101.195 113.301C100.188 112.462 100.052 110.966 100.89 109.96C101.728 108.954 103.224 108.816 104.23 109.655L142.056 141.148C143.063 141.986 143.2 143.481 142.362 144.488C141.893 145.052 141.217 145.343 140.537 145.343Z" fill="#FBA028"/>
<path d="M53.7141 113.363L22.6283 139.915C18.3462 143.574 20.2608 150.567 25.8105 151.532C34.7376 153.083 45.169 154.824 47.974 155H14.8801C10.973 155 7.41821 153.495 4.76456 151.034C1.83537 148.314 0.0012207 144.433 0.0012207 140.122V56.0863H11.2331V113.37C11.3408 124.95 24.9153 131.164 33.8164 123.757L50.753 109.654C51.7783 108.803 53.312 108.958 54.141 110.018C54.9416 111.038 54.7098 112.534 53.7141 113.363Z" fill="#FBA028"/>
</g>
<defs>
<clipPath id="clip0">
<rect width="155" height="155" fill="white"/>
</clipPath>
</defs>
</svg>
