<svg width="22" height="23" viewBox="0 0 22 23" fill="none" xmlns="http://www.w3.org/2000/svg">
<path fill-rule="evenodd" clip-rule="evenodd" d="M21.6562 11.55C21.6562 13.4693 21.1764 15.2453 20.2168 16.8781C19.2571 18.5109 17.9609 19.8072 16.3281 20.7668C14.6953 21.7264 12.9192 22.2062 11 22.2062C9.08071 22.2062 7.30467 21.7264 5.67186 20.7668C4.03905 19.8072 2.74283 18.5109 1.7832 16.8781C0.823567 15.2453 0.34375 13.4693 0.34375 11.55C0.34375 9.63076 0.823567 7.85472 1.7832 6.22191C2.74283 4.5891 4.03905 3.29288 5.67186 2.33325C7.30467 1.37362 9.08071 0.893799 11 0.893799C12.9192 0.893799 14.6953 1.37362 16.3281 2.33325C17.9609 3.29288 19.2571 4.5891 20.2168 6.22191C21.1764 7.85472 21.6562 9.63076 21.6562 11.55ZM11 13.6985C10.4557 13.6985 9.99022 13.8918 9.6035 14.2785C9.21678 14.6652 9.02342 15.1307 9.02342 15.675C9.02342 16.2193 9.21678 16.6848 9.6035 17.0715C9.99022 17.4582 10.4557 17.6516 11 17.6516C11.5442 17.6516 12.0097 17.4582 12.3965 17.0715C12.7832 16.6848 12.9765 16.2193 12.9765 15.675C12.9765 15.1307 12.7832 14.6652 12.3965 14.2785C12.0097 13.8918 11.5442 13.6985 11 13.6985ZM9.10937 6.60863L9.45312 12.4524C9.45312 12.5669 9.50325 12.6744 9.60351 12.7746C9.70377 12.8749 9.82551 12.925 9.96874 12.925H12.0312C12.1745 12.925 12.2962 12.8749 12.3965 12.7746C12.4967 12.6744 12.5469 12.5669 12.5469 12.4524L12.8906 6.60863C12.8906 6.43675 12.8405 6.30068 12.7402 6.20042C12.64 6.10016 12.5182 6.05003 12.375 6.05003H9.62499C9.48176 6.05003 9.36002 6.10016 9.25976 6.20042C9.1595 6.30068 9.10937 6.43675 9.10937 6.60863Z" fill="#E00202"/>
</svg>
